<mxfile host="app.diagrams.net" agent="Mozilla/5.0 (Windows NT 10.0; Win64; x64; rv:139.0) Gecko/20100101 Firefox/139.0" version="27.1.6">
  <diagram name="Page-1" id="QSSUB5xwdyqVrXx8Xxwn">
    <mxGraphModel dx="2849" dy="1230" grid="1" gridSize="10" guides="1" tooltips="1" connect="1" arrows="1" fold="1" page="1" pageScale="1" pageWidth="827" pageHeight="1169" background="#FFFFFF" math="0" shadow="0">
      <root>
        <mxCell id="0" />
        <mxCell id="1" parent="0" />
        <mxCell id="yD4JGJ_AioUjOKqYVBEH-2" style="edgeStyle=orthogonalEdgeStyle;rounded=0;orthogonalLoop=1;jettySize=auto;html=1;exitX=0.5;exitY=0;exitDx=0;exitDy=0;entryX=0.75;entryY=0;entryDx=0;entryDy=0;" edge="1" parent="1" source="t1V6sAwUfzflqOR3UADN-2" target="t1V6sAwUfzflqOR3UADN-13">
          <mxGeometry relative="1" as="geometry" />
        </mxCell>
        <mxCell id="t1V6sAwUfzflqOR3UADN-2" value="P1" style="swimlane;whiteSpace=wrap;html=1;" parent="1" vertex="1">
          <mxGeometry x="350" y="185" width="200" height="160" as="geometry" />
        </mxCell>
        <mxCell id="t1V6sAwUfzflqOR3UADN-6" value="UPRAVLJANJE KORISNICIMA" style="text;html=1;align=center;verticalAlign=middle;resizable=0;points=[];autosize=1;strokeColor=none;fillColor=none;" parent="t1V6sAwUfzflqOR3UADN-2" vertex="1">
          <mxGeometry x="5" y="70" width="190" height="30" as="geometry" />
        </mxCell>
        <mxCell id="t1V6sAwUfzflqOR3UADN-98" style="edgeStyle=orthogonalEdgeStyle;rounded=0;orthogonalLoop=1;jettySize=auto;html=1;exitX=1;exitY=0.75;exitDx=0;exitDy=0;" parent="1" source="t1V6sAwUfzflqOR3UADN-11" edge="1">
          <mxGeometry relative="1" as="geometry">
            <mxPoint x="350" y="315.0952380952381" as="targetPoint" />
          </mxGeometry>
        </mxCell>
        <mxCell id="t1V6sAwUfzflqOR3UADN-102" style="edgeStyle=orthogonalEdgeStyle;rounded=0;orthogonalLoop=1;jettySize=auto;html=1;exitX=0;exitY=1;exitDx=0;exitDy=0;entryX=0;entryY=0.25;entryDx=0;entryDy=0;" parent="1" source="t1V6sAwUfzflqOR3UADN-11" target="t1V6sAwUfzflqOR3UADN-23" edge="1">
          <mxGeometry relative="1" as="geometry" />
        </mxCell>
        <mxCell id="t1V6sAwUfzflqOR3UADN-112" style="edgeStyle=orthogonalEdgeStyle;rounded=0;orthogonalLoop=1;jettySize=auto;html=1;exitX=0;exitY=0.5;exitDx=0;exitDy=0;" parent="1" source="t1V6sAwUfzflqOR3UADN-11" target="t1V6sAwUfzflqOR3UADN-36" edge="1">
          <mxGeometry relative="1" as="geometry">
            <mxPoint x="350" y="973.3333333333334" as="targetPoint" />
            <Array as="points">
              <mxPoint x="-90" y="300" />
              <mxPoint x="-90" y="970" />
            </Array>
          </mxGeometry>
        </mxCell>
        <mxCell id="t1V6sAwUfzflqOR3UADN-11" value="" style="rounded=1;whiteSpace=wrap;html=1;" parent="1" vertex="1">
          <mxGeometry x="20" y="270" width="120" height="60" as="geometry" />
        </mxCell>
        <mxCell id="t1V6sAwUfzflqOR3UADN-79" style="edgeStyle=orthogonalEdgeStyle;rounded=0;orthogonalLoop=1;jettySize=auto;html=1;entryX=0.75;entryY=0;entryDx=0;entryDy=0;" parent="1" source="t1V6sAwUfzflqOR3UADN-13" target="t1V6sAwUfzflqOR3UADN-2" edge="1">
          <mxGeometry relative="1" as="geometry">
            <Array as="points">
              <mxPoint x="500" y="165" />
            </Array>
          </mxGeometry>
        </mxCell>
        <mxCell id="yD4JGJ_AioUjOKqYVBEH-4" style="edgeStyle=orthogonalEdgeStyle;rounded=0;orthogonalLoop=1;jettySize=auto;html=1;exitX=1;exitY=0;exitDx=0;exitDy=0;entryX=0;entryY=0.25;entryDx=0;entryDy=0;" edge="1" parent="1" source="t1V6sAwUfzflqOR3UADN-13" target="t1V6sAwUfzflqOR3UADN-47">
          <mxGeometry relative="1" as="geometry" />
        </mxCell>
        <mxCell id="t1V6sAwUfzflqOR3UADN-13" value="ADMINISTRATOR" style="rounded=1;whiteSpace=wrap;html=1;" parent="1" vertex="1">
          <mxGeometry x="770" y="130" width="120" height="60" as="geometry" />
        </mxCell>
        <mxCell id="t1V6sAwUfzflqOR3UADN-73" style="edgeStyle=orthogonalEdgeStyle;rounded=0;orthogonalLoop=1;jettySize=auto;html=1;entryX=0.25;entryY=0;entryDx=0;entryDy=0;" parent="1" source="t1V6sAwUfzflqOR3UADN-15" target="t1V6sAwUfzflqOR3UADN-2" edge="1">
          <mxGeometry relative="1" as="geometry">
            <Array as="points">
              <mxPoint x="400" y="165" />
            </Array>
          </mxGeometry>
        </mxCell>
        <mxCell id="t1V6sAwUfzflqOR3UADN-15" value="eduID" style="rounded=1;whiteSpace=wrap;html=1;" parent="1" vertex="1">
          <mxGeometry x="14" y="150" width="120" height="60" as="geometry" />
        </mxCell>
        <mxCell id="t1V6sAwUfzflqOR3UADN-70" style="edgeStyle=orthogonalEdgeStyle;rounded=0;orthogonalLoop=1;jettySize=auto;html=1;entryX=0.75;entryY=1;entryDx=0;entryDy=0;" parent="1" source="t1V6sAwUfzflqOR3UADN-17" target="t1V6sAwUfzflqOR3UADN-2" edge="1">
          <mxGeometry relative="1" as="geometry">
            <Array as="points">
              <mxPoint x="500" y="365" />
            </Array>
          </mxGeometry>
        </mxCell>
        <mxCell id="t1V6sAwUfzflqOR3UADN-91" style="edgeStyle=orthogonalEdgeStyle;rounded=0;orthogonalLoop=1;jettySize=auto;html=1;entryX=1;entryY=0.25;entryDx=0;entryDy=0;" parent="1" source="t1V6sAwUfzflqOR3UADN-17" target="t1V6sAwUfzflqOR3UADN-26" edge="1">
          <mxGeometry relative="1" as="geometry">
            <Array as="points">
              <mxPoint x="820" y="493" />
            </Array>
          </mxGeometry>
        </mxCell>
        <mxCell id="t1V6sAwUfzflqOR3UADN-108" style="edgeStyle=orthogonalEdgeStyle;rounded=0;orthogonalLoop=1;jettySize=auto;html=1;entryX=1;entryY=0.75;entryDx=0;entryDy=0;" parent="1" source="t1V6sAwUfzflqOR3UADN-17" target="t1V6sAwUfzflqOR3UADN-23" edge="1">
          <mxGeometry relative="1" as="geometry">
            <Array as="points">
              <mxPoint x="940" y="345" />
              <mxPoint x="940" y="788" />
            </Array>
          </mxGeometry>
        </mxCell>
        <mxCell id="t1V6sAwUfzflqOR3UADN-116" style="edgeStyle=orthogonalEdgeStyle;rounded=0;orthogonalLoop=1;jettySize=auto;html=1;exitX=1;exitY=0.25;exitDx=0;exitDy=0;" parent="1" source="t1V6sAwUfzflqOR3UADN-17" edge="1">
          <mxGeometry relative="1" as="geometry">
            <mxPoint x="560" y="960" as="targetPoint" />
            <Array as="points">
              <mxPoint x="1020" y="330" />
              <mxPoint x="1020" y="960" />
            </Array>
          </mxGeometry>
        </mxCell>
        <mxCell id="t1V6sAwUfzflqOR3UADN-120" style="edgeStyle=orthogonalEdgeStyle;rounded=0;orthogonalLoop=1;jettySize=auto;html=1;exitX=1;exitY=0;exitDx=0;exitDy=0;entryX=0.5;entryY=0;entryDx=0;entryDy=0;" parent="1" source="t1V6sAwUfzflqOR3UADN-17" target="t1V6sAwUfzflqOR3UADN-28" edge="1">
          <mxGeometry relative="1" as="geometry" />
        </mxCell>
        <mxCell id="t1V6sAwUfzflqOR3UADN-145" style="edgeStyle=orthogonalEdgeStyle;rounded=0;orthogonalLoop=1;jettySize=auto;html=1;exitX=0.5;exitY=0;exitDx=0;exitDy=0;" parent="1" source="t1V6sAwUfzflqOR3UADN-17" edge="1">
          <mxGeometry relative="1" as="geometry">
            <mxPoint x="1330" y="170" as="targetPoint" />
          </mxGeometry>
        </mxCell>
        <mxCell id="t1V6sAwUfzflqOR3UADN-17" value="KNJIŽNIČAR" style="rounded=1;whiteSpace=wrap;html=1;" parent="1" vertex="1">
          <mxGeometry x="760" y="315" width="120" height="60" as="geometry" />
        </mxCell>
        <mxCell id="t1V6sAwUfzflqOR3UADN-89" style="edgeStyle=orthogonalEdgeStyle;rounded=0;orthogonalLoop=1;jettySize=auto;html=1;exitX=0;exitY=0.75;exitDx=0;exitDy=0;entryX=0.25;entryY=1;entryDx=0;entryDy=0;" parent="1" source="t1V6sAwUfzflqOR3UADN-26" target="t1V6sAwUfzflqOR3UADN-11" edge="1">
          <mxGeometry relative="1" as="geometry" />
        </mxCell>
        <mxCell id="t1V6sAwUfzflqOR3UADN-92" style="edgeStyle=orthogonalEdgeStyle;rounded=0;orthogonalLoop=1;jettySize=auto;html=1;exitX=1;exitY=0.75;exitDx=0;exitDy=0;" parent="1" source="t1V6sAwUfzflqOR3UADN-26" edge="1">
          <mxGeometry relative="1" as="geometry">
            <mxPoint x="860" y="380" as="targetPoint" />
            <Array as="points">
              <mxPoint x="861" y="558" />
              <mxPoint x="861" y="380" />
            </Array>
          </mxGeometry>
        </mxCell>
        <mxCell id="t1V6sAwUfzflqOR3UADN-26" value="P2" style="swimlane;whiteSpace=wrap;html=1;" parent="1" vertex="1">
          <mxGeometry x="340" y="460" width="233" height="130" as="geometry" />
        </mxCell>
        <mxCell id="t1V6sAwUfzflqOR3UADN-27" value="UPRAVLJANJE KNJIŽNIČNIM FONDOM" style="text;html=1;align=center;verticalAlign=middle;resizable=0;points=[];autosize=1;strokeColor=none;fillColor=none;" parent="t1V6sAwUfzflqOR3UADN-26" vertex="1">
          <mxGeometry x="-3.5" y="60" width="240" height="30" as="geometry" />
        </mxCell>
        <mxCell id="t1V6sAwUfzflqOR3UADN-122" style="edgeStyle=orthogonalEdgeStyle;rounded=0;orthogonalLoop=1;jettySize=auto;html=1;entryX=1;entryY=0.75;entryDx=0;entryDy=0;" parent="1" source="t1V6sAwUfzflqOR3UADN-28" target="t1V6sAwUfzflqOR3UADN-17" edge="1">
          <mxGeometry relative="1" as="geometry">
            <Array as="points">
              <mxPoint x="1210" y="530" />
              <mxPoint x="900" y="530" />
              <mxPoint x="900" y="360" />
            </Array>
          </mxGeometry>
        </mxCell>
        <mxCell id="t1V6sAwUfzflqOR3UADN-28" value="P5" style="swimlane;whiteSpace=wrap;html=1;" parent="1" vertex="1">
          <mxGeometry x="1080" y="320" width="260" height="140" as="geometry" />
        </mxCell>
        <mxCell id="t1V6sAwUfzflqOR3UADN-29" value="&lt;div&gt;UPRAVLJANJE EVIDENCIJOM O&amp;nbsp;&lt;/div&gt;&lt;div&gt;NABAVKAMA, DONACIJAMA I OTPISIMA&lt;/div&gt;" style="text;html=1;align=center;verticalAlign=middle;resizable=0;points=[];autosize=1;strokeColor=none;fillColor=none;" parent="t1V6sAwUfzflqOR3UADN-28" vertex="1">
          <mxGeometry x="5" y="62.5" width="250" height="40" as="geometry" />
        </mxCell>
        <mxCell id="t1V6sAwUfzflqOR3UADN-118" style="edgeStyle=orthogonalEdgeStyle;rounded=0;orthogonalLoop=1;jettySize=auto;html=1;exitX=0;exitY=0.75;exitDx=0;exitDy=0;entryX=0;entryY=0.25;entryDx=0;entryDy=0;" parent="1" source="t1V6sAwUfzflqOR3UADN-35" target="t1V6sAwUfzflqOR3UADN-11" edge="1">
          <mxGeometry relative="1" as="geometry">
            <Array as="points">
              <mxPoint x="350" y="1020" />
              <mxPoint x="-140" y="1020" />
              <mxPoint x="-140" y="285" />
            </Array>
          </mxGeometry>
        </mxCell>
        <mxCell id="t1V6sAwUfzflqOR3UADN-35" value="P4" style="swimlane;whiteSpace=wrap;html=1;" parent="1" vertex="1">
          <mxGeometry x="350" y="910" width="205" height="130" as="geometry" />
        </mxCell>
        <mxCell id="t1V6sAwUfzflqOR3UADN-36" value="UPRAVLJANJE REZERVACIJAMA" style="text;html=1;align=center;verticalAlign=middle;resizable=0;points=[];autosize=1;strokeColor=none;fillColor=none;" parent="t1V6sAwUfzflqOR3UADN-35" vertex="1">
          <mxGeometry x="-5" y="60" width="210" height="30" as="geometry" />
        </mxCell>
        <mxCell id="t1V6sAwUfzflqOR3UADN-103" style="edgeStyle=orthogonalEdgeStyle;rounded=0;orthogonalLoop=1;jettySize=auto;html=1;exitX=0;exitY=0.75;exitDx=0;exitDy=0;" parent="1" source="t1V6sAwUfzflqOR3UADN-23" target="t1V6sAwUfzflqOR3UADN-11" edge="1">
          <mxGeometry relative="1" as="geometry" />
        </mxCell>
        <mxCell id="t1V6sAwUfzflqOR3UADN-23" value="P3" style="swimlane;whiteSpace=wrap;html=1;" parent="1" vertex="1">
          <mxGeometry x="356.5" y="690" width="200" height="130" as="geometry" />
        </mxCell>
        <mxCell id="t1V6sAwUfzflqOR3UADN-25" value="UPRAVLJANJE POSUDBAMA" style="text;html=1;align=center;verticalAlign=middle;whiteSpace=wrap;rounded=0;" parent="t1V6sAwUfzflqOR3UADN-23" vertex="1">
          <mxGeometry x="20" y="30" width="160" height="90" as="geometry" />
        </mxCell>
        <mxCell id="t1V6sAwUfzflqOR3UADN-62" style="edgeStyle=orthogonalEdgeStyle;rounded=0;orthogonalLoop=1;jettySize=auto;html=1;entryX=0;entryY=0.5;entryDx=0;entryDy=0;" parent="1" source="t1V6sAwUfzflqOR3UADN-47" target="t1V6sAwUfzflqOR3UADN-59" edge="1">
          <mxGeometry relative="1" as="geometry" />
        </mxCell>
        <mxCell id="t1V6sAwUfzflqOR3UADN-127" style="edgeStyle=orthogonalEdgeStyle;rounded=0;orthogonalLoop=1;jettySize=auto;html=1;exitX=0;exitY=1;exitDx=0;exitDy=0;entryX=0.75;entryY=0;entryDx=0;entryDy=0;" parent="1" target="t1V6sAwUfzflqOR3UADN-17" edge="1">
          <mxGeometry relative="1" as="geometry">
            <mxPoint x="1300" y="160" as="sourcePoint" />
            <mxPoint x="850" y="310" as="targetPoint" />
            <Array as="points">
              <mxPoint x="1190" y="160" />
              <mxPoint x="1190" y="200" />
              <mxPoint x="850" y="200" />
            </Array>
          </mxGeometry>
        </mxCell>
        <mxCell id="yD4JGJ_AioUjOKqYVBEH-6" style="edgeStyle=orthogonalEdgeStyle;rounded=0;orthogonalLoop=1;jettySize=auto;html=1;exitX=0;exitY=0.5;exitDx=0;exitDy=0;entryX=1;entryY=0.25;entryDx=0;entryDy=0;" edge="1" parent="1" source="t1V6sAwUfzflqOR3UADN-47" target="t1V6sAwUfzflqOR3UADN-13">
          <mxGeometry relative="1" as="geometry" />
        </mxCell>
        <mxCell id="t1V6sAwUfzflqOR3UADN-47" value="P6" style="swimlane;whiteSpace=wrap;html=1;" parent="1" vertex="1">
          <mxGeometry x="1300" y="40" width="200" height="130" as="geometry" />
        </mxCell>
        <mxCell id="t1V6sAwUfzflqOR3UADN-48" value="&lt;div&gt;IZVJEŠTAJI, LOGOVI&lt;/div&gt;&lt;div&gt;I OBAVIJESTI&lt;/div&gt;" style="text;html=1;align=center;verticalAlign=middle;resizable=0;points=[];autosize=1;strokeColor=none;fillColor=none;" parent="t1V6sAwUfzflqOR3UADN-47" vertex="1">
          <mxGeometry x="30" y="45" width="140" height="40" as="geometry" />
        </mxCell>
        <mxCell id="t1V6sAwUfzflqOR3UADN-152" style="edgeStyle=orthogonalEdgeStyle;rounded=0;orthogonalLoop=1;jettySize=auto;html=1;" parent="1" source="t1V6sAwUfzflqOR3UADN-59" edge="1">
          <mxGeometry relative="1" as="geometry">
            <mxPoint x="1470" y="170" as="targetPoint" />
            <Array as="points">
              <mxPoint x="1990" y="190" />
              <mxPoint x="1471" y="190" />
              <mxPoint x="1471" y="170" />
            </Array>
          </mxGeometry>
        </mxCell>
        <mxCell id="t1V6sAwUfzflqOR3UADN-59" value="" style="rounded=1;whiteSpace=wrap;html=1;" parent="1" vertex="1">
          <mxGeometry x="1930" y="75" width="120" height="60" as="geometry" />
        </mxCell>
        <mxCell id="t1V6sAwUfzflqOR3UADN-60" value="&lt;div&gt;STUDENT (KOPIJA)&lt;/div&gt;" style="text;html=1;align=center;verticalAlign=middle;whiteSpace=wrap;rounded=0;" parent="1" vertex="1">
          <mxGeometry x="1953" y="90" width="74" height="30" as="geometry" />
        </mxCell>
        <mxCell id="t1V6sAwUfzflqOR3UADN-69" value="ZAHTJEV ZA PRIJAVU" style="text;html=1;align=center;verticalAlign=middle;whiteSpace=wrap;rounded=0;" parent="1" vertex="1">
          <mxGeometry x="160" y="292.5" width="190" height="15" as="geometry" />
        </mxCell>
        <mxCell id="t1V6sAwUfzflqOR3UADN-71" value="ZAHTJEV ZA PRIJAVU" style="text;html=1;align=center;verticalAlign=middle;whiteSpace=wrap;rounded=0;" parent="1" vertex="1">
          <mxGeometry x="550" y="330" width="180" height="40" as="geometry" />
        </mxCell>
        <mxCell id="t1V6sAwUfzflqOR3UADN-74" value="ODGOVOR S POTVRDOM ILI ODBIJANJEM PRIJAVE" style="text;html=1;align=center;verticalAlign=middle;whiteSpace=wrap;rounded=0;" parent="1" vertex="1">
          <mxGeometry x="160" y="120" width="200" height="40" as="geometry" />
        </mxCell>
        <mxCell id="t1V6sAwUfzflqOR3UADN-75" style="edgeStyle=orthogonalEdgeStyle;rounded=0;orthogonalLoop=1;jettySize=auto;html=1;entryX=0.25;entryY=0;entryDx=0;entryDy=0;" parent="1" source="t1V6sAwUfzflqOR3UADN-6" target="t1V6sAwUfzflqOR3UADN-17" edge="1">
          <mxGeometry relative="1" as="geometry" />
        </mxCell>
        <mxCell id="t1V6sAwUfzflqOR3UADN-77" value="POTVRDA PRISTUPA ILI OBAVIJEST O GREŠKI" style="text;html=1;align=center;verticalAlign=middle;whiteSpace=wrap;rounded=0;" parent="1" vertex="1">
          <mxGeometry x="550" y="230" width="240" height="50" as="geometry" />
        </mxCell>
        <mxCell id="t1V6sAwUfzflqOR3UADN-78" value="POTVRDA PRISTUPA ILI OBAVIJEST O GREŠKI" style="text;html=1;align=center;verticalAlign=middle;whiteSpace=wrap;rounded=0;" parent="1" vertex="1">
          <mxGeometry x="110" y="210" width="240" height="50" as="geometry" />
        </mxCell>
        <mxCell id="t1V6sAwUfzflqOR3UADN-80" value="DODJELA PRAVA I ODREĐIVANJE RAZINE SUSTAVA" style="text;html=1;align=center;verticalAlign=middle;whiteSpace=wrap;rounded=0;" parent="1" vertex="1">
          <mxGeometry x="540" y="115" width="230" height="50" as="geometry" />
        </mxCell>
        <mxCell id="t1V6sAwUfzflqOR3UADN-83" value="ZAHTJEV ZA PRETRAŽIVANJEM KNJIGA" style="text;html=1;align=center;verticalAlign=middle;whiteSpace=wrap;rounded=0;" parent="1" vertex="1">
          <mxGeometry x="100" y="440" width="240" height="130" as="geometry" />
        </mxCell>
        <mxCell id="t1V6sAwUfzflqOR3UADN-86" value="UNOS, BRISANJE, UREĐIVANJE KNJIGA" style="text;html=1;align=center;verticalAlign=middle;whiteSpace=wrap;rounded=0;" parent="1" vertex="1">
          <mxGeometry x="590" y="440" width="210" height="80" as="geometry" />
        </mxCell>
        <mxCell id="t1V6sAwUfzflqOR3UADN-90" value="PRISTUP INFORMACIJAMA O KNJIGAMA&amp;nbsp;" style="text;html=1;align=center;verticalAlign=middle;whiteSpace=wrap;rounded=0;" parent="1" vertex="1">
          <mxGeometry x="70" y="520" width="260" height="60" as="geometry" />
        </mxCell>
        <mxCell id="t1V6sAwUfzflqOR3UADN-93" value="POTVRDA O USPJEŠNIM AKTIVNOSTIMA&amp;nbsp;" style="text;html=1;align=center;verticalAlign=middle;whiteSpace=wrap;rounded=0;" parent="1" vertex="1">
          <mxGeometry x="573" y="520" width="210" height="40" as="geometry" />
        </mxCell>
        <mxCell id="t1V6sAwUfzflqOR3UADN-95" style="edgeStyle=orthogonalEdgeStyle;rounded=0;orthogonalLoop=1;jettySize=auto;html=1;exitX=0;exitY=0.5;exitDx=0;exitDy=0;entryX=0.681;entryY=0;entryDx=0;entryDy=0;entryPerimeter=0;" parent="1" source="t1V6sAwUfzflqOR3UADN-2" target="t1V6sAwUfzflqOR3UADN-11" edge="1">
          <mxGeometry relative="1" as="geometry">
            <Array as="points">
              <mxPoint x="350" y="250" />
              <mxPoint x="102" y="250" />
            </Array>
          </mxGeometry>
        </mxCell>
        <mxCell id="t1V6sAwUfzflqOR3UADN-96" value="STUDENT" style="text;html=1;align=center;verticalAlign=middle;whiteSpace=wrap;rounded=0;" parent="1" vertex="1">
          <mxGeometry x="50" y="285" width="60" height="30" as="geometry" />
        </mxCell>
        <mxCell id="t1V6sAwUfzflqOR3UADN-99" style="edgeStyle=orthogonalEdgeStyle;rounded=0;orthogonalLoop=1;jettySize=auto;html=1;exitX=0.75;exitY=1;exitDx=0;exitDy=0;entryX=0.001;entryY=0.069;entryDx=0;entryDy=0;entryPerimeter=0;" parent="1" source="t1V6sAwUfzflqOR3UADN-11" target="t1V6sAwUfzflqOR3UADN-27" edge="1">
          <mxGeometry relative="1" as="geometry">
            <Array as="points">
              <mxPoint x="100" y="330" />
              <mxPoint x="100" y="522" />
            </Array>
          </mxGeometry>
        </mxCell>
        <mxCell id="t1V6sAwUfzflqOR3UADN-101" value="ZAHTJEV ZA POSUDBU KNJIGE, ZAHTJEV ZA PREGLED SVIH POSUDBI&amp;nbsp;" style="text;html=1;align=center;verticalAlign=middle;whiteSpace=wrap;rounded=0;" parent="1" vertex="1">
          <mxGeometry x="80" y="600" width="210" height="190" as="geometry" />
        </mxCell>
        <mxCell id="t1V6sAwUfzflqOR3UADN-105" style="edgeStyle=orthogonalEdgeStyle;rounded=0;orthogonalLoop=1;jettySize=auto;html=1;exitX=1;exitY=0.25;exitDx=0;exitDy=0;entryX=0.94;entryY=0.999;entryDx=0;entryDy=0;entryPerimeter=0;" parent="1" source="t1V6sAwUfzflqOR3UADN-23" target="t1V6sAwUfzflqOR3UADN-17" edge="1">
          <mxGeometry relative="1" as="geometry" />
        </mxCell>
        <mxCell id="t1V6sAwUfzflqOR3UADN-106" value="PROSLJEĐIVANJE ZAHTJEVA STUDENTA" style="text;html=1;align=center;verticalAlign=middle;whiteSpace=wrap;rounded=0;" parent="1" vertex="1">
          <mxGeometry x="580" y="680" width="230" height="50" as="geometry" />
        </mxCell>
        <mxCell id="t1V6sAwUfzflqOR3UADN-107" value="OBAVIJEST O PRIHVATANJU ILI ODBIJANJU POSUDBE" style="text;html=1;align=center;verticalAlign=middle;whiteSpace=wrap;rounded=0;" parent="1" vertex="1">
          <mxGeometry x="117.5" y="730" width="180" height="90" as="geometry" />
        </mxCell>
        <mxCell id="t1V6sAwUfzflqOR3UADN-109" value="PRIHVATANJE ILI ODBIJANJE POSUDBE, PREGLED POSUDBI, UNOŠENJE PODATAKA O VRAĆANJU" style="text;html=1;align=center;verticalAlign=middle;whiteSpace=wrap;rounded=0;" parent="1" vertex="1">
          <mxGeometry x="573" y="720" width="377" height="110" as="geometry" />
        </mxCell>
        <mxCell id="t1V6sAwUfzflqOR3UADN-114" value="ZAHTJEV ZA REZERVACIJU KNJIGE" style="text;html=1;align=center;verticalAlign=middle;whiteSpace=wrap;rounded=0;" parent="1" vertex="1">
          <mxGeometry x="20" y="930" width="215" height="40" as="geometry" />
        </mxCell>
        <mxCell id="t1V6sAwUfzflqOR3UADN-117" value="PREGLED, PRIHVATANJE ILI ODBIJANJE REZERVACIJE" style="text;html=1;align=center;verticalAlign=middle;whiteSpace=wrap;rounded=0;" parent="1" vertex="1">
          <mxGeometry x="580" y="910" width="290" height="60" as="geometry" />
        </mxCell>
        <mxCell id="t1V6sAwUfzflqOR3UADN-119" value="OBAVIJEST O REZERVACIJI" style="text;html=1;align=center;verticalAlign=middle;whiteSpace=wrap;rounded=0;" parent="1" vertex="1">
          <mxGeometry x="32.5" y="970" width="190" height="70" as="geometry" />
        </mxCell>
        <mxCell id="t1V6sAwUfzflqOR3UADN-121" value="UNOS PODATAKA O NABAVKAMA, DONACIJAMA I OTPISIMA" style="text;html=1;align=center;verticalAlign=middle;whiteSpace=wrap;rounded=0;" parent="1" vertex="1">
          <mxGeometry x="900" y="230" width="280" height="90" as="geometry" />
        </mxCell>
        <mxCell id="t1V6sAwUfzflqOR3UADN-123" value="POTVRDA UNOSA, PRISTUP EVIDENCIJI" style="text;html=1;align=center;verticalAlign=middle;whiteSpace=wrap;rounded=0;" parent="1" vertex="1">
          <mxGeometry x="1060" y="480" width="130" height="70" as="geometry" />
        </mxCell>
        <mxCell id="t1V6sAwUfzflqOR3UADN-130" value="ZAHTJEV ZA IZVJEŠTAJ O NAJČITANIJIM KNJIGAMA I IZVJEŠTAJ O NDO*&lt;div&gt;&lt;br&gt;&lt;/div&gt;" style="text;html=1;align=center;verticalAlign=middle;whiteSpace=wrap;rounded=0;" parent="1" vertex="1">
          <mxGeometry x="960" y="170" width="270" height="125" as="geometry" />
        </mxCell>
        <mxCell id="t1V6sAwUfzflqOR3UADN-132" value="IZVJEŠTAJ O NAJČITANIJIM&amp;nbsp; KNJIGAMA I IZVJEŠTAJ O NDO*" style="text;html=1;align=center;verticalAlign=middle;whiteSpace=wrap;rounded=0;" parent="1" vertex="1">
          <mxGeometry x="980" y="135" width="190" height="90" as="geometry" />
        </mxCell>
        <mxCell id="t1V6sAwUfzflqOR3UADN-146" value="&lt;div&gt;OBAVIJEST O ISTEKU POSUDBE, OBAVIJEST O POSUDBAMA I REZERVACIJAMA&lt;/div&gt;&lt;div&gt;PRISTUP IZVJEŠTAJU O NAJČITANIJIM KNJIGAMA&lt;/div&gt;&lt;div&gt;&lt;br&gt;&lt;/div&gt;" style="text;html=1;align=center;verticalAlign=middle;whiteSpace=wrap;rounded=0;" parent="1" vertex="1">
          <mxGeometry x="1560" y="60" width="290" height="60" as="geometry" />
        </mxCell>
        <mxCell id="t1V6sAwUfzflqOR3UADN-150" value="ZAHTJEV ZA PREGLED IZVJEŠTAJA O NAJČITANIJIM KNJIGAMA" style="text;html=1;align=center;verticalAlign=middle;whiteSpace=wrap;rounded=0;" parent="1" vertex="1">
          <mxGeometry x="1580" y="130" width="230" height="80" as="geometry" />
        </mxCell>
        <mxCell id="xmxdQJvCI28i58BFn9em-3" value="&lt;font style=&quot;font-size: 20px;&quot;&gt;NDO* - NABAVKAMA, DONACIJAMA I OTPISIMA&lt;/font&gt;" style="text;html=1;align=center;verticalAlign=middle;whiteSpace=wrap;rounded=0;" parent="1" vertex="1">
          <mxGeometry x="-120" y="1090" width="380" height="60" as="geometry" />
        </mxCell>
        <mxCell id="yD4JGJ_AioUjOKqYVBEH-3" value="POTVRDA O IZMJENAMA U SUSTAVU" style="text;html=1;align=center;verticalAlign=middle;whiteSpace=wrap;rounded=0;" vertex="1" parent="1">
          <mxGeometry x="525" y="70" width="230" height="45" as="geometry" />
        </mxCell>
        <mxCell id="yD4JGJ_AioUjOKqYVBEH-5" value="ZAHTJEV ZA PRISTUP LOGOVIMA" style="text;html=1;align=center;verticalAlign=middle;whiteSpace=wrap;rounded=0;" vertex="1" parent="1">
          <mxGeometry x="995" y="45" width="200" height="25" as="geometry" />
        </mxCell>
        <mxCell id="yD4JGJ_AioUjOKqYVBEH-7" value="PRISTUP LOGOVIMA" style="text;html=1;align=center;verticalAlign=middle;whiteSpace=wrap;rounded=0;" vertex="1" parent="1">
          <mxGeometry x="920" y="120" width="140" height="40" as="geometry" />
        </mxCell>
      </root>
    </mxGraphModel>
  </diagram>
</mxfile>
